<svg xmlns="http://www.w3.org/2000/svg" version="1.1" xmlns:xlink="http://www.w3.org/1999/xlink" xmlns:svgjs="http://svgjs.dev/svgjs" width="1000" height="353" viewBox="0 0 1000 353"><g transform="matrix(1,0,0,1,-0.6060606060606233,0.37163257556917983)"><svg viewBox="0 0 396 140" data-background-color="#ffffff" preserveAspectRatio="xMidYMid meet" height="353" width="1000" xmlns="http://www.w3.org/2000/svg" xmlns:xlink="http://www.w3.org/1999/xlink"><g id="tight-bounds" transform="matrix(1,0,0,1,0.2400000000000091,-0.1473896900274383)"><svg viewBox="0 0 395.52 140.29477938005485" height="140.29477938005485" width="395.52"><g><svg viewBox="0 0 689.102559157267 244.43135999999996" height="140.29477938005485" width="395.52"><g transform="matrix(1,0,0,1,293.58255915726704,18.115307329192532)"><svg viewBox="0 0 395.52 208.2007453416149" height="208.2007453416149" width="395.52"><g id="textblocktransform"><svg viewBox="0 0 395.52 208.2007453416149" height="208.2007453416149" width="395.52" id="textblock"><g><svg viewBox="0 0 395.52 208.2007453416149" height="208.2007453416149" width="395.52"><g transform="matrix(1,0,0,1,0,0)"><svg width="395.52" viewBox="1.27 -32.62 62.88999999999999 33.11" height="208.2007453416149" data-palette-color="#000000"><path d="M7.96-32.13L7.96-32.13Q9.38-32.13 11.23-32.2 13.09-32.28 14.55-32.28L14.55-32.28Q16.02-32.28 17.46-32.01 18.9-31.74 20.34-31.05 21.78-30.37 22.88-29.37 23.97-28.37 24.68-26.81 25.39-25.24 25.39-23.34L25.39-23.34Q25.39-21.04 24.19-18.85 23-16.65 20.58-15.11 18.16-13.57 15.14-13.57L15.14-13.57Q14.11-13.57 13.09-13.94 12.06-14.31 11.67-14.84L11.67-14.84Q11.57-14.94 11.5-15.33 11.43-15.72 11.47-16.06 11.52-16.41 11.62-16.41L11.62-16.41Q12.74-15.92 14.36-15.92L14.36-15.92Q16.7-15.92 18.07-17.85 19.43-19.78 19.43-22.71L19.43-22.71Q19.43-25.98 18.12-27.88 16.8-29.79 14.06-29.79L14.06-29.79Q12.01-29.79 11.23-29.44L11.23-29.44Q10.64-29.15 10.64-24.37L10.64-24.37 10.64-6.93Q10.64-4 11.04-2.78L11.04-2.78Q11.18-2.2 12.67-1.83 14.16-1.46 14.84-1.46L14.84-1.46Q15.04-1.46 15.04-0.63L15.04-0.63Q15.04-0.1 14.94 0.2L14.94 0.2Q9.57-0.1 8.01-0.1L8.01-0.1Q6.69-0.1 5.05-0.02 3.42 0.05 2.44 0.1L2.44 0.1 1.46 0.2Q1.32 0 1.32-0.68L1.32-0.68Q1.32-1.46 1.46-1.46L1.46-1.46Q2.1-1.46 3.34-1.78 4.59-2.1 4.79-2.54L4.79-2.54Q5.08-3.42 5.08-6.98L5.08-6.98 5.08-25.44Q5.08-28.22 4.79-29.44L4.79-29.44Q4.64-29.83 3.34-30.25 2.05-30.66 1.46-30.66L1.46-30.66Q1.27-30.66 1.27-31.4L1.27-31.4Q1.27-32.13 1.46-32.28L1.46-32.28Q6.59-32.13 7.96-32.13ZM28.51-23.93L28.51-23.93Q28.51-27.59 31.59-30.1 34.67-32.62 38.52-32.62L38.52-32.62Q39.89-32.62 40.92-32.47 41.94-32.32 43.77-31.86 45.6-31.4 46.29-31.25L46.29-31.25Q46.87-27.93 46.87-23.73L46.87-23.73Q46.77-23.29 46.29-23.29L46.29-23.29Q44.97-23.29 44.87-23.73L44.87-23.73Q44.58-25.98 42.77-28.13 40.96-30.27 38.38-30.27L38.38-30.27Q36.13-30.27 34.93-29 33.74-27.73 33.74-25.59L33.74-25.59Q33.74-24.85 33.91-24.19 34.08-23.54 34.59-22.9 35.1-22.27 35.42-21.85 35.74-21.44 36.64-20.8 37.55-20.17 37.86-19.92 38.18-19.68 39.33-18.97 40.48-18.26 40.72-18.16L40.72-18.16Q41.01-17.92 42.36-17.11 43.7-16.31 44.24-15.94 44.77-15.58 45.8-14.7 46.82-13.82 47.29-13.04 47.75-12.26 48.14-11.06 48.53-9.86 48.53-8.5L48.53-8.5Q48.53-4.59 45.38-2.05 42.23 0.49 38.08 0.49L38.08 0.49Q35.15 0.49 29.1-0.88L29.1-0.88Q28.66-2.64 28.29-5.3 27.93-7.96 27.93-8.79L27.93-8.79Q27.98-9.18 28.71-9.18L28.71-9.18Q29.98-9.18 30.12-8.79L30.12-8.79Q30.32-7.91 30.81-6.86 31.3-5.81 32.15-4.61 33.01-3.42 34.45-2.66 35.89-1.9 37.69-1.9L37.69-1.9Q39.99-1.9 41.5-3.27 43.02-4.64 43.02-7.37L43.02-7.37Q43.02-8.2 42.7-8.98 42.38-9.77 41.97-10.3 41.55-10.84 40.74-11.47 39.94-12.11 39.4-12.45 38.86-12.79 37.81-13.4 36.77-14.01 36.33-14.26L36.33-14.26Q36.18-14.4 35.79-14.65L35.79-14.65Q34.37-15.53 33.64-16.02 32.91-16.5 31.76-17.46 30.61-18.41 30.03-19.24 29.44-20.07 28.98-21.29 28.51-22.51 28.51-23.93ZM54.88-6.64L54.88-25.49Q54.88-28.42 54.49-29.59L54.49-29.59Q54.29-29.98 53.12-30.35 51.95-30.71 51.36-30.71L51.36-30.71Q51.17-30.71 51.17-31.45L51.17-31.45Q51.17-32.23 51.26-32.32L51.26-32.32Q51.51-32.32 53.97-32.18 56.44-32.03 57.76-32.03L57.76-32.03Q58.15-32.03 64.01-32.32L64.01-32.32Q64.16-31.88 64.16-31.54L64.16-31.54Q64.16-30.71 63.96-30.71L63.96-30.71Q63.52-30.71 62.2-30.32 60.88-29.93 60.79-29.59L60.79-29.59Q60.4-28.08 60.4-25.29L60.4-25.29 60.4-6.93Q60.4-4.25 60.83-2.54L60.83-2.54Q60.93-2.2 62.18-1.83 63.42-1.46 63.86-1.46L63.86-1.46Q64.06-1.46 64.06-0.54L64.06-0.54Q64.06-0.15 63.96 0.15L63.96 0.15Q58.1-0.15 57.76-0.15L57.76-0.15Q56.78-0.15 55.71-0.1 54.63-0.05 53.34 0.02 52.05 0.1 51.26 0.15L51.26 0.15Q51.07-0.05 51.07-0.54L51.07-0.54Q51.07-1.46 51.26-1.46L51.26-1.46Q51.85-1.46 53.1-1.81 54.34-2.15 54.49-2.54L54.49-2.54Q54.88-4.05 54.88-6.64L54.88-6.64Z" opacity="1" transform="matrix(1,0,0,1,0,0)" fill="#000000" class="wordmark-text-0" data-fill-palette-color="primary" id="text-0"></path></svg></g></svg></g></svg></g></svg></g><g><svg viewBox="0 0 244.43135999999996 244.43135999999996" height="244.43135999999996" width="244.43135999999996"><g><svg xmlns="http://www.w3.org/2000/svg" xmlns:xlink="http://www.w3.org/1999/xlink" version="1.1" x="0" y="0" viewBox="5 5 90 90" enable-background="new 0 0 100 100" xml:space="preserve" height="244.43135999999996" width="244.43135999999996" class="icon-icon-0" data-fill-palette-color="accent" id="icon-0"><path d="M94.886 6.791c-0.025-0.083-0.043-0.167-0.077-0.247-0.036-0.087-0.086-0.167-0.131-0.249-0.033-0.06-0.06-0.123-0.098-0.181-0.183-0.275-0.419-0.51-0.693-0.694-0.06-0.04-0.124-0.067-0.186-0.101-0.08-0.044-0.158-0.093-0.244-0.128-0.081-0.034-0.166-0.053-0.25-0.078-0.072-0.021-0.142-0.049-0.216-0.064C92.828 5.017 92.664 5 92.5 5H23.733c-0.157 0-0.309 0.018-0.457 0.046-0.012 0.002-0.024 0.001-0.036 0.004-0.216 0.043-0.417 0.122-0.61 0.217-0.046 0.023-0.089 0.047-0.134 0.073-0.194 0.111-0.377 0.239-0.534 0.396L5.735 21.963c-0.157 0.157-0.285 0.34-0.396 0.534-0.025 0.044-0.049 0.087-0.072 0.132-0.095 0.193-0.174 0.395-0.218 0.611-0.002 0.009-0.001 0.019-0.003 0.028C5.018 23.42 5 23.574 5 23.733V92.5c0 0.164 0.017 0.328 0.049 0.489 0.015 0.075 0.043 0.144 0.064 0.217 0.025 0.084 0.044 0.169 0.078 0.25 0.036 0.086 0.085 0.165 0.129 0.246 0.034 0.061 0.06 0.125 0.1 0.184 0.183 0.274 0.419 0.51 0.693 0.694 0.06 0.04 0.126 0.068 0.188 0.102 0.08 0.044 0.157 0.092 0.242 0.127 0.082 0.034 0.168 0.053 0.252 0.078 0.072 0.021 0.14 0.049 0.215 0.064C7.172 94.983 7.336 95 7.5 95h68.767c0.005 0 0.01-0.001 0.015-0.002 0.16-0.001 0.319-0.017 0.475-0.048 0.094-0.019 0.182-0.053 0.272-0.082 0.065-0.021 0.131-0.034 0.194-0.06 0.102-0.042 0.196-0.099 0.291-0.154 0.046-0.027 0.095-0.046 0.14-0.076 0.138-0.092 0.266-0.197 0.383-0.314l16.228-16.228c0.157-0.157 0.285-0.34 0.396-0.534 0.025-0.044 0.049-0.087 0.072-0.132 0.096-0.193 0.174-0.395 0.218-0.611 0.002-0.009 0.001-0.019 0.003-0.028C94.982 76.58 95 76.426 95 76.267V7.5c0-0.164-0.017-0.328-0.049-0.489C94.936 6.935 94.907 6.865 94.886 6.791zM21.233 13.536v7.698h-7.698L21.233 13.536zM10 26.233h11.233v1.323c-5.072 6.319-8.117 14.331-8.117 23.045s3.044 16.727 8.117 23.045v1.584L10 86.465V26.233zM21.233 36.862v27.479c-1.996-4.163-3.117-8.822-3.117-13.739C18.117 45.685 19.237 41.025 21.233 36.862zM73.767 90H13.535l11.234-11.233h1.454C32.649 84.2 40.946 87.485 50 87.485c9.049 0 17.342-3.281 23.767-8.709V90zM35.079 78.767h29.842c-4.455 2.37-9.532 3.718-14.921 3.718S39.534 81.136 35.079 78.767zM73.767 71.825c-0.603 0.674-1.236 1.32-1.894 1.941H28.127c-0.657-0.621-1.291-1.267-1.894-1.941V29.379c1.004-1.123 2.086-2.173 3.238-3.145h41.057c1.152 0.972 2.234 2.022 3.238 3.145V71.825zM37.59 21.233c3.816-1.619 8.01-2.515 12.41-2.515s8.594 0.896 12.41 2.515H37.59zM75.231 21.233H72.28c-6.195-4.711-13.915-7.515-22.28-7.515s-16.085 2.804-22.28 7.515h-1.487V10h60.231L75.231 21.233zM78.767 36.862c1.996 4.163 3.117 8.823 3.117 13.74 0 4.917-1.12 9.576-3.117 13.739V36.862zM78.767 86.464v-7.698h7.698L78.767 86.464zM90 73.767H78.767v-0.119c5.072-6.319 8.117-14.331 8.117-23.045s-3.044-16.727-8.117-23.045v-2.788L90 13.535V73.767z" fill="#000000" data-fill-palette-color="accent"></path></svg></g></svg></g></svg></g><defs></defs></svg><rect width="395.52" height="140.29477938005485" fill="none" stroke="none" visibility="hidden"></rect></g></svg></g></svg>